:FULLY-SPECIFIED
:FORCE-ALL-JOINTS-BE-3DOF
:DEGREES
849
root 3.74912 16.3838 27.9977 -8.45283 6.38255 357.363
lfemur -22.7294 2.51534 -13.9419
ltibia 34.4497 0 0
lfoot -3.9571 -14.6625 0
ltoes 7.79204 0 0
rfemur -27.9349 -4.47329 4.77123
rtibia 68.4538 0 0
rfoot 18.4271 9.38085 0
rtoes -15.4915 0 0
lowerback 4.17829 2.86394 -0.936743
upperback 1.14359 3.60401 0.206841
thorax -1.06477 1.80574 0.923162
lowerneck -6.3006 -3.39766 2.81909
upperneck 8.52606 -5.02187 1.90653
head 3.87996 -2.30095 -0.129466
lclavicle 2.62869e-14 -1.29305e-14 0
lhumerus -48.2571 -10.7333 83.8165
lradius 54.197 0 0
lwrist 19.3549 0 0
lhand -0.322234 4.45504 0
lfingers 7.12502 0 0
lthumb 25.2694 32.6777 0
rclavicle 2.62869e-14 -1.29305e-14 0
rhumerus -40.1571 15.4829 -68.7777
rradius 54.1729 0 0
rwrist 4.6162 0 0
rhand -24.7548 -26.9237 0
rfingers 7.12502 0 0
rthumb 1.74572 -776.717 0
850
root 3.76787 16.3995 28.0913 -8.96461 7.27093 357.483
lfemur -21.9593 2.77896 -14.3526
ltibia 34.4343 0 0
lfoot -4.00789 -15.5905 0
ltoes 8.98936 0 0
rfemur -30.3391 -4.19727 4.77531
rtibia 67.8396 0 0
rfoot 17.665 8.63373 0
rtoes -14.4896 0 0
lowerback 4.84789 2.53576 -1.20163
upperback 1.37837 3.14118 0.110773
thorax -1.18822 1.575 0.985703
lowerneck -6.30916 -3.39484 2.78538
upperneck 8.49614 -5.02311 2.00235
head 3.875 -2.29882 -0.0919496
lclavicle 2.58332e-14 -1.34038e-14 0
lhumerus -47.3555 -11.5571 83.5783
lradius 54.2868 0 0
lwrist 19.6208 0 0
lhand 0.248411 4.44648 0
lfingers 7.12502 0 0
lthumb 25.8154 32.5852 0
rclavicle 2.58332e-14 -1.34038e-14 0
rhumerus -40.8997 14.3274 -67.6056
rradius 54.0036 0 0
rwrist 4.34134 0 0
rhand -23.8741 -27.1295 0
rfingers 7.12502 0 0
rthumb 2.59597 -776.907 0
851
root 3.78663 16.4153 28.1848 -9.47638 8.1593 357.604
lfemur -21.1893 3.04259 -14.7634
ltibia 34.4188 0 0
lfoot -4.05868 -16.5186 0
ltoes 10.1867 0 0
rfemur -32.7433 -3.92124 4.77938
rtibia 67.2254 0 0
rfoot 16.903 7.88661 0
rtoes -13.4878 0 0
lowerback 5.51749 2.20757 -1.46652
upperback 1.61315 2.67836 0.0147054
thorax -1.31167 1.34427 1.04824
lowerneck -6.31772 -3.39202 2.75168
upperneck 8.46623 -5.02435 2.09817
head 3.87004 -2.29669 -0.0544329
lclavicle 2.53794e-14 -1.3877e-14 0
lhumerus -46.4539 -12.381 83.3401
lradius 54.3765 0 0
lwrist 19.8867 0 0
lhand 0.819057 4.43792 0
lfingers 7.12502 0 0
lthumb 26.3614 32.4927 0
rclavicle 2.53794e-14 -1.3877e-14 0
rhumerus -41.6424 13.172 -66.4336
rradius 53.8343 0 0
rwrist 4.06647 0 0
rhand -22.9933 -27.3354 0
rfingers 7.12502 0 0
rthumb 3.44622 -777.097 0
852
root 3.80538 16.431 28.2784 -9.98816 9.04767 357.724
lfemur -20.4192 3.30622 -15.1741
ltibia 34.4034 0 0
lfoot -4.10947 -17.4466 0
ltoes 11.384 0 0
rfemur -35.1475 -3.64522 4.78346
rtibia 66.6113 0 0
rfoot 16.1409 7.13949 0
rtoes -12.4859 0 0
lowerback 6.18709 1.87939 -1.7314
upperback 1.84793 2.21553 -0.0813624
thorax -1.43512 1.11354 1.11078
lowerneck -6.32627 -3.38919 2.71798
upperneck 8.43631 -5.02559 2.194
head 3.86507 -2.29455 -0.0169161
lclavicle 2.49256e-14 -1.43503e-14 0
lhumerus -45.5523 -13.2048 83.102
lradius 54.4663 0 0
lwrist 20.1526 0 0
lhand 1.3897 4.42936 0
lfingers 7.12502 0 0
lthumb 26.9074 32.4002 0
rclavicle 2.49256e-14 -1.43503e-14 0
rhumerus -42.385 12.0166 -65.2615
rradius 53.665 0 0
rwrist 3.7916 0 0
rhand -22.1126 -27.5412 0
rfingers 7.12502 0 0
rthumb 4.29648 -777.287 0
853
root 3.82414 16.4468 28.3719 -10.4999 9.93604 357.845
lfemur -19.6492 3.56985 -15.5849
ltibia 34.3879 0 0
lfoot -4.16026 -18.3747 0
ltoes 12.5813 0 0
rfemur -37.5518 -3.36919 4.78753
rtibia 65.9971 0 0
rfoot 15.3788 6.39237 0
rtoes -11.484 0 0
lowerback 6.85669 1.5512 -1.99629
upperback 2.08271 1.75271 -0.17743
thorax -1.55858 0.882806 1.17332
lowerneck -6.33483 -3.38637 2.68428
upperneck 8.4064 -5.02683 2.28982
head 3.86011 -2.29242 0.0206006
lclavicle 2.44718e-14 -1.48236e-14 0
lhumerus -44.6507 -14.0287 82.8638
lradius 54.556 0 0
lwrist 20.4185 0 0
lhand 1.96035 4.4208 0
lfingers 7.12502 0 0
lthumb 27.4534 32.3077 0
rclavicle 2.44718e-14 -1.48236e-14 0
rhumerus -43.1277 10.8611 -64.0895
rradius 53.4957 0 0
rwrist 3.51673 0 0
rhand -21.2318 -27.7471 0
rfingers 7.12502 0 0
rthumb 5.14673 -777.477 0
854
root 3.84289 16.4625 28.4655 -11.0117 10.8244 357.965
lfemur -18.8791 3.83348 -15.9956
ltibia 34.3725 0 0
lfoot -4.21105 -19.3028 0
ltoes 13.7786 0 0
rfemur -39.956 -3.09317 4.79161
rtibia 65.3829 0 0
rfoot 14.6168 5.64525 0
rtoes -10.4821 0 0
lowerback 7.52629 1.22302 -2.26118
upperback 2.3175 1.28988 -0.273498
thorax -1.68203 0.652073 1.23587
lowerneck -6.34339 -3.38355 2.65057
upperneck 8.37648 -5.02807 2.38564
head 3.85515 -2.29029 0.0581173
lclavicle 2.40181e-14 -1.52969e-14 0
lhumerus -43.7491 -14.8525 82.6256
lradius 54.6458 0 0
lwrist 20.6844 0 0
lhand 2.53099 4.41224 0
lfingers 7.12502 0 0
lthumb 27.9994 32.2152 0
rclavicle 2.40181e-14 -1.52969e-14 0
rhumerus -43.8703 9.70571 -62.9174
rradius 53.3264 0 0
rwrist 3.24187 0 0
rhand -20.3511 -27.9529 0
rfingers 7.12502 0 0
rthumb 5.99698 -777.667 0
855
root 3.86165 16.4783 28.5591 -11.5235 11.7128 358.086
lfemur -18.109 4.09711 -16.4063
ltibia 34.357 0 0
lfoot -4.26184 -20.2308 0
ltoes 14.976 0 0
rfemur -42.3602 -2.81714 4.79569
rtibia 64.7687 0 0
rfoot 13.8547 4.89813 0
rtoes -9.48026 0 0
lowerback 8.19589 0.894833 -2.52606
upperback 2.55228 0.82706 -0.369566
thorax -1.80548 0.42134 1.29841
lowerneck -6.35194 -3.38073 2.61687
upperneck 8.34657 -5.02931 2.48147
head 3.85018 -2.28816 0.095634
lclavicle 2.35643e-14 -1.57702e-14 0
lhumerus -42.8475 -15.6764 82.3874
lradius 54.7355 0 0
lwrist 20.9503 0 0
lhand 3.10164 4.40368 0
lfingers 7.12502 0 0
lthumb 28.5453 32.1228 0
rclavicle 2.35643e-14 -1.57702e-14 0
rhumerus -44.613 8.55028 -61.7454
rradius 53.157 0 0
rwrist 2.967 0 0
rhand -19.4704 -28.1588 0
rfingers 7.12502 0 0
rthumb 6.84723 -777.857 0
856
root 3.88041 16.494 28.6526 -12.0353 12.6012 358.206
lfemur -17.339 4.36074 -16.8171
ltibia 34.3416 0 0
lfoot -4.31263 -21.1589 0
ltoes 16.1733 0 0
rfemur -44.7644 -2.54112 4.79976
rtibia 64.1545 0 0
rfoot 13.0926 4.15101 0
rtoes -8.47839 0 0
lowerback 8.86549 0.566649 -2.79095
upperback 2.78706 0.364236 -0.465633
thorax -1.92893 0.190607 1.36095
lowerneck -6.3605 -3.37791 2.58317
upperneck 8.31666 -5.03055 2.57729
head 3.84522 -2.28602 0.133151
lclavicle 2.31105e-14 -1.62435e-14 0
lhumerus -41.9459 -16.5002 82.1493
lradius 54.8253 0 0
lwrist 21.2162 0 0
lhand 3.67229 4.39512 0
lfingers 7.12502 0 0
lthumb 29.0913 32.0303 0
rclavicle 2.31105e-14 -1.62435e-14 0
rhumerus -45.3556 7.39485 -60.5734
rradius 52.9877 0 0
rwrist 2.69213 0 0
rhand -18.5896 -28.3646 0
rfingers 7.12502 0 0
rthumb 7.69749 -778.047 0
857
root 3.89916 16.5098 28.7462 -12.547 13.4895 358.327
lfemur -16.5689 4.62437 -17.2278
ltibia 34.3261 0 0
lfoot -4.36343 -22.087 0
ltoes 17.3706 0 0
rfemur -47.1687 -2.26509 4.80384
rtibia 63.5403 0 0
rfoot 12.3306 3.40389 0
rtoes -7.47651 0 0
lowerback 9.5351 0.238464 -3.05584
upperback 3.02184 -0.0985886 -0.561701
thorax -2.05238 -0.0401257 1.42349
lowerneck -6.36906 -3.37509 2.54946
upperneck 8.28674 -5.03179 2.67311
head 3.84026 -2.28389 0.170667
lclavicle 2.26568e-14 -1.67168e-14 0
lhumerus -41.0444 -17.3241 81.9111
lradius 54.915 0 0
lwrist 21.4822 0 0
lhand 4.24293 4.38655 0
lfingers 7.12502 0 0
lthumb 29.6373 31.9378 0
rclavicle 2.26568e-14 -1.67168e-14 0
rhumerus -46.0983 6.23942 -59.4013
rradius 52.8184 0 0
rwrist 2.41727 0 0
rhand -17.7089 -28.5705 0
rfingers 7.12502 0 0
rthumb 8.54774 -778.237 0
858
root 3.91792 16.5255 28.8398 -13.0588 14.3779 358.447
lfemur -15.7988 4.88799 -17.6385
ltibia 34.3107 0 0
lfoot -4.41422 -23.015 0
ltoes 18.5679 0 0
rfemur -49.5729 -1.98907 4.80792
rtibia 62.9261 0 0
rfoot 11.5685 2.65677 0
rtoes -6.47464 0 0
lowerback 10.2047 -0.089721 -3.32072
upperback 3.25662 -0.561413 -0.657769
thorax -2.17583 -0.270859 1.48603
lowerneck -6.37761 -3.37227 2.51576
upperneck 8.25683 -5.03303 2.76894
head 3.83529 -2.28176 0.208184
lclavicle 2.2203e-14 -1.71901e-14 0
lhumerus -40.1428 -18.1479 81.6729
lradius 55.0048 0 0
lwrist 21.7481 0 0
lhand 4.81358 4.37799 0
lfingers 7.12502 0 0
lthumb 30.1833 31.8453 0
rclavicle 2.2203e-14 -1.71901e-14 0
rhumerus -46.8409 5.08399 -58.2293
rradius 52.6491 0 0
rwrist 2.1424 0 0
rhand -16.8282 -28.7763 0
rfingers 7.12502 0 0
rthumb 9.39799 -778.427 0
859
root 3.93667 16.5413 28.9333 -13.5706 15.2663 358.568
lfemur -15.0288 5.15162 -18.0493
ltibia 34.2952 0 0
lfoot -4.46501 -23.9431 0
ltoes 19.7652 0 0
rfemur -51.9771 -1.71305 4.81199
rtibia 62.312 0 0
rfoot 10.8065 1.90966 0
rtoes -5.47276 0 0
lowerback 10.8743 -0.417906 -3.58561
upperback 3.4914 -1.02424 -0.753837
thorax -2.29929 -0.501591 1.54857
lowerneck -6.38617 -3.36944 2.48206
upperneck 8.22691 -5.03427 2.86476
head 3.83033 -2.27963 0.245701
lclavicle 2.17492e-14 -1.76634e-14 0
lhumerus -39.2412 -18.9718 81.4347
lradius 55.0945 0 0
lwrist 22.014 0 0
lhand 5.38422 4.36943 0
lfingers 7.12502 0 0
lthumb 30.7293 31.7528 0
rclavicle 2.17492e-14 -1.76634e-14 0
rhumerus -47.5836 3.92857 -57.0572
rradius 52.4798 0 0
rwrist 1.86753 0 0
rhand -15.9474 -28.9822 0
rfingers 7.12502 0 0
rthumb 10.2482 -778.617 0
860
root 3.95543 16.557 29.0269 -14.0824 16.1547 358.688
lfemur -14.2587 5.41525 -18.46
ltibia 34.2798 0 0
lfoot -4.5158 -24.8712 0
ltoes 20.9626 0 0
rfemur -54.3813 -1.43702 4.81607
rtibia 61.6978 0 0
rfoot 10.0444 1.16254 0
rtoes -4.47089 0 0
lowerback 11.5439 -0.74609 -3.8505
upperback 3.72618 -1.48706 -0.849904
thorax -2.42274 -0.732324 1.61111
lowerneck -6.39473 -3.36662 2.44836
upperneck 8.197 -5.03551 2.96058
head 3.82537 -2.27749 0.283218
lclavicle 2.12954e-14 -1.81367e-14 0
lhumerus -38.3396 -19.7956 81.1966
lradius 55.1843 0 0
lwrist 22.2799 0 0
lhand 5.95487 4.36087 0
lfingers 7.12502 0 0
lthumb 31.2752 31.6604 0
rclavicle 2.12954e-14 -1.81367e-14 0
rhumerus -48.3262 2.77314 -55.8852
rradius 52.3104 0 0
rwrist 1.59266 0 0
rhand -15.0667 -29.188 0
rfingers 7.12502 0 0
rthumb 11.0985 -778.807 0
